<svg width="897" height="586" viewBox="0 0 897 586" xmlns="http://www.w3.org/2000/svg"><title>Group 12</title><desc>Created with Sketch.</desc><g fill="none"><path d="M58.28 454.72c0 13.44-3.48 23.28-9 30.12-5.76 7.2-13.44 11.16-27.84 11.16h-20.64v-82.68h19.2c14.28 0 23.4 3.24 30.96 13.68 4.92 6.84 7.32 16.32 7.32 27.72zm-12.84 1.44c0-11.52-1.2-20.04-6.12-26.28-4.56-5.76-9.36-7.32-17.4-7.32h-9.36v63.96h9.12c9.48 0 15.6-2.52 19.32-9.24 3-5.52 4.44-12.96 4.44-21.12zm72.32 39.84v-9.6h-29.16v-18.72h22.2v-9.24h-22.32v-16.32h26.76l1.56-9.24h-39.6v63.12h40.56zm69.56-63.12h-11.64l-13.56 33.84c-2.4 6-4.08 12.6-4.32 13.68-.24-.96-2.04-7.92-4.44-14.04l-12.84-33.48h-12.24l24 63.36h10.44l24.6-63.36zm60.92 63.12v-63.12h-11.28v25.08h-25.2v-25.08h-11.28v63.12h11.28v-28.8h25.2v28.8h11.28zm47.96 1.08c-9.48 0-15.84-2.52-21.12-8.16-6-6.36-8.76-14.16-8.76-24.6 0-20.16 11.04-32.4 29.16-32.4 10.2 0 17.52 3.36 22.8 9.84 4.56 5.28 6.84 12.72 6.84 22.8 0 10.2-2.04 17.4-6.48 22.8-5.28 6.6-12 9.72-22.44 9.72zm0-8.4c7.08 0 11.88-2.88 14.16-9.12 1.56-3.84 2.04-7.68 2.04-14.16 0-7.8-.84-12.84-2.76-16.8-2.88-5.64-7.68-7.92-14.4-7.92-5.76 0-10.68 2.52-13.2 6.6-2.28 3.72-3.24 8.88-3.24 16.32 0 8.4 1.44 14.64 3.96 18.96 2.28 3.96 7.08 6.12 13.44 6.12zm95.96-15.12v-40.68h-11.4v40.2c0 6.12-.6 8.28-2.4 10.68-1.92 2.52-5.64 3.96-10.56 3.96-6.12 0-10.68-2.4-12.36-6.48-.72-1.68-.96-5.04-.96-9.6v-38.76h-11.28v40.92c0 7.08.6 9.72 2.52 13.32 3.12 5.52 9.84 9.96 21.96 9.96 8.76 0 14.64-2.04 18.84-6 4.32-3.96 5.64-7.44 5.64-17.52zm66.08 3.24c0-4.32-1.68-8.52-4.56-11.4-2.88-3-7.8-5.16-12.72-6.48l-8.64-2.16c-7.2-2.04-9.96-4.2-9.96-8.16 0-5.04 4.92-8.16 12.24-8.16 5.64 0 11.4 1.68 17.04 5.04l5.16-8.04c-5.64-3.84-14.52-6.24-22.68-6.24-14.04 0-24 7.8-24 18.96 0 3.24.96 6.12 2.76 8.76 2.52 3.84 6.96 6.6 12.72 8.16l9 2.28c7.92 2.04 11.16 4.92 11.16 9.48 0 3.12-1.68 5.52-4.68 7.2-2.52 1.44-5.28 2.04-9.48 2.04-6.96 0-12.96-1.68-19.56-5.16l-4.32 8.76c7.08 3.72 15.24 5.64 23.28 5.64 6.48 0 12.12-1.2 16.68-3.72 6.6-3.48 10.56-9.84 10.56-16.8zm58.52 19.2v-9.6h-29.16v-18.72h22.2v-9.24h-22.32v-16.32h26.76l1.56-9.24h-39.6v63.12h40.56zm89.8-82.68h-43.08v82.68h11.64v-38.76h24.48v-9.36h-24.48v-25.08h29.88l1.56-9.48zm60.56 82.68h-13.68c-1.8-3.12-3.84-6.24-6-9.72-5.4-8.64-8.64-12.6-11.76-15-1.8-1.56-3.36-2.04-5.52-2.28v27h-11.16v-63.12h18.84c9.48 0 14.4 1.08 18.12 3.84 4.44 3.24 7.2 8.28 7.2 14.16 0 10.44-6.84 17.16-17.52 17.64 1.08.72 2.28 1.8 3.12 2.88 2.04 2.52 5.64 7.2 9 11.64 3.6 5.16 9.12 12.6 9.36 12.96zm-30-54.12h-6.96v19.2h6.12c6.24 0 9.6-.72 12-2.52 2.04-1.56 3.24-4.08 3.24-7.44 0-3.96-2.28-7.08-6.12-8.28-2.16-.72-4.68-.96-8.28-.96zm57.8 54.12v-63.12h-11.4v63.12h11.4zm36.2-63.12c6.6 0 12.72 0 17.88 2.16 9.36 2.88 18.12 10.68 18.12 29.4 0 20.4-12.72 29.04-20.52 30.72-2.76.72-6.6.84-11.28.84h-18.36v-63.12h14.16zm23.64 32.4c0-8.28-1.32-13.68-4.68-17.64-3.72-4.44-7.92-5.76-14.4-5.76h-7.44v45h8.76c2.04 0 4.32-.24 6-.72 6.72-1.68 11.76-7.56 11.76-20.88zm81.44 30.72h-12.36l-6-16.44h-23.64l-6 16.44h-11.64l23.52-63.24h13.08l23.04 63.24zm-21-25.44c-.72-2.16-8.64-25.92-9-27.6-.36 1.68-8.64 25.92-9.12 27.6h18.12zm81.32-37.68h-13.08l-11.4 19.68c-1.68 2.88-3 5.76-3.72 7.56-.72-1.8-2.28-5.04-3.72-7.56l-11.28-19.68h-13.68l22.44 37.56v25.56h11.64v-25.56l22.8-37.56z" fill="#333"/><path d="M352.425 581.992l-3.008-4.032c-2.368 1.856-4.736 2.752-8.128 2.752-4.672 0-8.768-2.304-10.816-7.168-1.088-2.56-1.6-5.44-1.6-10.368 0-5.312.704-9.024 2.112-11.84 2.048-4.096 5.44-6.336 9.792-6.336 2.944 0 5.376.768 7.808 2.56l3.008-4.032c-2.752-2.24-6.656-3.456-10.816-3.456-6.784 0-12.608 3.84-15.872 10.112-1.856 3.584-2.88 8-2.88 13.12 0 6.4 1.664 11.712 4.8 15.744 3.328 4.224 7.936 6.592 13.696 6.592 4.48 0 8.512-1.216 11.904-3.648zm33.067 3.008v-33.664h-6.016v13.376h-13.44v-13.376h-6.016v33.664h6.016v-15.36h13.44v15.36h6.016zm17.835 0v-33.664h-6.08v33.664h6.08zm32.107-4.928h-14.208v-28.736h-6.08v33.664h19.328l.96-4.928zm26.987 0h-14.208v-28.736h-6.08v33.664h19.328l.96-4.928zm20.651 5.504c-5.056 0-8.448-1.344-11.264-4.352-3.2-3.392-4.672-7.552-4.672-13.12 0-10.752 5.888-17.28 15.552-17.28 5.44 0 9.344 1.792 12.16 5.248 2.432 2.816 3.648 6.784 3.648 12.16 0 5.44-1.088 9.28-3.456 12.16-2.816 3.52-6.4 5.184-11.968 5.184zm0-4.48c3.776 0 6.336-1.536 7.552-4.864.832-2.048 1.088-4.096 1.088-7.552 0-4.16-.448-6.848-1.472-8.96-1.536-3.008-4.096-4.224-7.68-4.224-3.072 0-5.696 1.344-7.04 3.52-1.216 1.984-1.728 4.736-1.728 8.704 0 4.48.768 7.808 2.112 10.112 1.216 2.112 3.776 3.264 7.168 3.264zm51.179-8.064v-21.696h-6.08v21.44c0 3.264-.32 4.416-1.28 5.696-1.024 1.344-3.008 2.112-5.632 2.112-3.264 0-5.696-1.28-6.592-3.456-.384-.896-.512-2.688-.512-5.12v-20.672h-6.016v21.824c0 3.776.32 5.184 1.344 7.104 1.664 2.944 5.248 5.312 11.712 5.312 4.672 0 7.808-1.088 10.048-3.2 2.304-2.112 3.008-3.968 3.008-9.344zm34.091-21.696h-26.112v4.928h9.6v28.736h5.952v-28.736h9.728l.832-4.928z" fill="#333"/><g><g fill="#FF0087"><g id="Group-7-Copy"><path d="M353.417 286.817l-117.001-117.001-25.355 25.355 117.001 117.001 25.355-25.355zm-25.355 28.183l-119.829-119.829 28.183-28.183 119.829 119.829-28.183 28.183z" id="Rectangle-9" fill-rule="nonzero"/><path id="Rectangle-10" d="M323.79 278.246l-2.331-2.331 11.942-11.942 2.331 2.331z"/><path id="Rectangle-10-Copy-4" d="M322.052 265.999l-2.331-2.331 6.688-6.688 2.331 2.331z"/><path id="Rectangle-10-Copy-8" d="M287.087 231.034l-2.331-2.331 6.688-6.688 2.331 2.331z"/><path id="Rectangle-10-Copy-12" d="M252.122 196.069l-2.331-2.331 6.688-6.688 2.331 2.331z"/><path id="Rectangle-10-Copy-5" d="M315.059 259.006l-2.331-2.331 6.688-6.688 2.331 2.331z"/><path id="Rectangle-10-Copy-9" d="M280.094 224.041l-2.331-2.331 6.688-6.688 2.331 2.331z"/><path id="Rectangle-10-Copy-13" d="M245.129 189.076l-2.331-2.331 6.688-6.688 2.331 2.331z"/><path id="Rectangle-10-Copy-6" d="M308.066 252.013l-2.331-2.331 6.688-6.688 2.331 2.331z"/><path id="Rectangle-10-Copy-10" d="M273.101 217.048l-2.331-2.331 6.688-6.688 2.331 2.331z"/><path id="Rectangle-10-Copy-14" d="M238.137 182.083l-2.331-2.331 6.688-6.688 2.331 2.331z"/><path id="Rectangle-10-Copy-7" d="M301.073 245.02l-2.331-2.331 6.688-6.688 2.331 2.331z"/><path id="Rectangle-10-Copy-11" d="M266.108 210.055l-2.331-2.331 6.688-6.688 2.331 2.331z"/><path id="Rectangle-10-Copy" d="M288.826 243.281l-2.331-2.331 11.942-11.942 2.331 2.331z"/><path id="Rectangle-10-Copy-2" d="M253.861 208.317l-2.331-2.331 11.942-11.942 2.331 2.331z"/><path id="Line" fill-rule="nonzero" d="M334.509 308.569l-119.237-119.237-1.414 1.414 119.237 119.237z"/></g><g id="Group-7"><path d="M209.858 193.556l143.558-143.558-25.355-25.355-143.558 143.558 25.355 25.355zm-28.183-25.355l146.386-146.386 28.183 28.183-146.386 146.386-28.183-28.183z" id="Rectangle-9" fill-rule="nonzero"/><path id="Rectangle-10" d="M218.429 163.929l2.331-2.331 11.942 11.942-2.331 2.331z"/><path id="Rectangle-10-Copy-4" d="M230.676 162.191l2.331-2.331 6.688 6.688-2.331 2.331z"/><path id="Rectangle-10-Copy-8" d="M265.641 127.226l2.331-2.331 6.688 6.688-2.331 2.331z"/><path id="Rectangle-10-Copy-12" d="M300.606 92.261l2.331-2.331 6.688 6.688-2.331 2.331z"/><path id="Rectangle-10-Copy-5" d="M237.669 155.198l2.331-2.331 6.688 6.688-2.331 2.331z"/><path id="Rectangle-10-Copy-9" d="M272.634 120.233l2.331-2.331 6.688 6.688-2.331 2.331z"/><path id="Rectangle-10-Copy-13" d="M307.599 85.268l2.331-2.331 6.688 6.688-2.331 2.331z"/><path id="Rectangle-10-Copy-6" d="M244.662 148.205l2.331-2.331 6.688 6.688-2.331 2.331z"/><path id="Rectangle-10-Copy-10" d="M279.627 113.24l2.331-2.331 6.688 6.688-2.331 2.331z"/><path id="Rectangle-10-Copy-14" d="M314.592 78.276l2.331-2.331 6.688 6.688-2.331 2.331z"/><path id="Rectangle-10-Copy-7" d="M251.655 141.212l2.331-2.331 6.688 6.688-2.331 2.331z"/><path id="Rectangle-10-Copy-11" d="M286.62 106.247l2.331-2.331 6.688 6.688-2.331 2.331z"/><path id="Rectangle-10-Copy-15" d="M321.585 71.283l2.331-2.331 6.688 6.688-2.331 2.331z"/><path id="Rectangle-10-Copy" d="M253.394 128.965l2.331-2.331 11.942 11.942-2.331 2.331z"/><path id="Rectangle-10-Copy-2" d="M288.358 94l2.331-2.331 11.942 11.942-2.331 2.331z"/><path id="Rectangle-10-Copy-3" d="M323.323 59.035l2.331-2.331 11.942 11.942-2.331 2.331z"/><path id="Line" fill-rule="nonzero" d="M188.106 174.648l146.402-146.402-1.414-1.414-146.402 146.402z"/></g></g><g fill="#FF0087"><g><path d="M535.667 55.166l143.558 143.558 25.355-25.355-143.558-143.558-25.355 25.355zm25.355-28.183l146.386 146.386-28.183 28.183-146.386-146.386 28.183-28.183z" id="Rectangle-9" fill-rule="nonzero"/><path d="M565.294 63.737l2.331 2.331-11.942 11.942-2.331-2.331z"/><path id="Rectangle-10-Copy-4" d="M567.032 75.984l2.331 2.331-6.688 6.688-2.331-2.331z"/><path id="Rectangle-10-Copy-8" d="M601.997 110.949l2.331 2.331-6.688 6.688-2.331-2.331z"/><path id="Rectangle-10-Copy-12" d="M636.962 145.914l2.331 2.331-6.688 6.688-2.331-2.331z"/><path id="Rectangle-10-Copy-5" d="M574.025 82.977l2.331 2.331-6.688 6.688-2.331-2.331z"/><path id="Rectangle-10-Copy-9" d="M608.99 117.942l2.331 2.331-6.688 6.688-2.331-2.331z"/><path id="Rectangle-10-Copy-13" d="M643.955 152.907l2.331 2.331-6.688 6.688-2.331-2.331z"/><path id="Rectangle-10-Copy-6" d="M581.018 89.97l2.331 2.331-6.688 6.688-2.331-2.331z"/><path id="Rectangle-10-Copy-10" d="M615.983 124.935l2.331 2.331-6.688 6.688-2.331-2.331z"/><path id="Rectangle-10-Copy-14" d="M650.947 159.9l2.331 2.331-6.688 6.688-2.331-2.331z"/><path id="Rectangle-10-Copy-7" d="M588.011 96.963l2.331 2.331-6.688 6.688-2.331-2.331z"/><path id="Rectangle-10-Copy-11" d="M622.976 131.928l2.331 2.331-6.688 6.688-2.331-2.331z"/><path id="Rectangle-10-Copy-15" d="M657.94 166.893l2.331 2.331-6.688 6.688-2.331-2.331z"/><path id="Rectangle-10-Copy" d="M600.258 98.702l2.331 2.331-11.942 11.942-2.331-2.331z"/><path id="Rectangle-10-Copy-2" d="M635.223 133.666l2.331 2.331-11.942 11.942-2.331-2.331z"/><path id="Rectangle-10-Copy-3" d="M670.188 168.631l2.331 2.331-11.942 11.942-2.331-2.331z"/><path id="Line" fill-rule="nonzero" d="M554.575 33.414l146.402 146.402 1.414-1.414-146.402-146.402z"/></g><g><path d="M651.717 174.934l-116.052 116.052 25.355 25.355 116.052-116.052-25.355-25.355zm28.183 25.355l-118.88 118.88-28.183-28.183 118.88-118.88 28.183 28.183z" fill-rule="nonzero"/><path d="M658.404 178.793l-2.331 2.331-6.688-6.688 2.331-2.331z"/><path d="M623.439 213.758l-2.331 2.331-6.688-6.688 2.331-2.331z"/><path d="M588.474 248.723l-2.331 2.331-6.688-6.688 2.331-2.331z"/><path d="M651.411 185.786l-2.331 2.331-6.688-6.688 2.331-2.331z"/><path d="M616.446 220.751l-2.331 2.331-6.688-6.688 2.331-2.331z"/><path d="M581.481 255.716l-2.331 2.331-6.688-6.688 2.331-2.331z"/><path d="M644.418 192.779l-2.331 2.331-6.688-6.688 2.331-2.331z"/><path d="M609.453 227.744l-2.331 2.331-6.688-6.688 2.331-2.331z"/><path d="M574.488 262.708l-2.331 2.331-6.688-6.688 2.331-2.331z"/><path d="M637.425 199.772l-2.331 2.331-6.688-6.688 2.331-2.331z"/><path d="M602.46 234.737l-2.331 2.331-6.688-6.688 2.331-2.331z"/><path d="M567.495 269.701l-2.331 2.331-6.688-6.688 2.331-2.331z"/><path d="M635.686 212.019l-2.331 2.331-11.942-11.942 2.331-2.331z"/><path d="M600.722 246.984l-2.331 2.331-11.942-11.942 2.331-2.331z"/><path d="M565.757 281.949l-2.331 2.331-11.942-11.942 2.331-2.331z"/><path fill-rule="nonzero" d="M672.853 194.457l-118.28 118.28 1.414 1.414 118.28-118.28z"/></g></g><path d="M437.788 249.689l-14.868 81.995c-1.282 7.069-7.943 11.293-14.873 9.436l-13.068-3.502c-6.932-1.857-10.722-8.893-8.468-15.704l26.13-78.964-3.234-.867c-3.013-.807-4.8-3.911-3.994-6.917.807-3.013 3.912-4.799 6.918-3.993l11.682 3.13 52.814-197.104c-4.698-3.199-6.643-9.152-4.368-14.935l7.912-20.107 19.475 5.218-3.201 21.369c-.921 6.149-5.582 10.331-11.25 10.751l-52.814 197.103 13.241 3.548c3.013.807 4.8 3.911 3.994 6.917-.807 3.013-3.912 4.799-6.918 3.993l-5.11-1.369z" stroke="#FF0087" stroke-width="3" fill-rule="nonzero"/></g></g></svg>