<svg width="311" height="60" viewBox="0 0 311 60" xmlns="http://www.w3.org/2000/svg"><title>Group</title><desc>Created with Sketch.</desc><g fill="#fff"><path d="M.2.8h2.376v2.376h-2.376v-2.376zm2.808 0h2.376v2.376h-2.376v-2.376zm2.808 0h2.376v2.376h-2.376v-2.376zm2.784 0h2.4v2.376h-2.4v-2.376zm2.808 0h2.376v2.376h-2.376v-2.376zm-11.208 2.808h2.376v2.376h-2.376v-2.376zm0 2.808h2.376v2.376h-2.376v-2.376zm0 2.784h2.376v2.4h-2.376v-2.4zm2.808 0h2.376v2.4h-2.376v-2.4zm2.808 0h2.376v2.4h-2.376v-2.4zm2.784 0h2.4v2.4h-2.4v-2.4zm-8.4 2.808h2.376v2.376h-2.376v-2.376zm0 2.808h2.376v2.376h-2.376v-2.376zm0 2.808h2.376v2.376h-2.376v-2.376zm16.037-16.824h2.376v2.376h-2.376v-2.376zm2.808 0h2.376v2.376h-2.376v-2.376zm2.784 0h2.4v2.376h-2.4v-2.376zm-2.784 2.808h2.376v2.376h-2.376v-2.376zm0 2.808h2.376v2.376h-2.376v-2.376zm0 2.784h2.376v2.4h-2.376v-2.4zm0 2.808h2.376v2.376h-2.376v-2.376zm0 2.808h2.376v2.376h-2.376v-2.376zm-2.808 2.808h2.376v2.376h-2.376v-2.376zm2.808 0h2.376v2.376h-2.376v-2.376zm2.784 0h2.4v2.376h-2.4v-2.376zm4.853-16.824h2.376v2.376h-2.376v-2.376zm11.208 0h2.4v2.376h-2.4v-2.376zm-11.208 2.808h2.376v2.376h-2.376v-2.376zm11.208 0h2.4v2.376h-2.4v-2.376zm-11.208 2.808h2.376v2.376h-2.376v-2.376zm2.808 0h2.376v2.376h-2.376v-2.376zm8.4 0h2.4v2.376h-2.4v-2.376zm-11.208 2.784h2.376v2.4h-2.376v-2.4zm5.616 0h2.376v2.4h-2.376v-2.4zm5.592 0h2.4v2.4h-2.4v-2.4zm-11.208 2.808h2.376v2.376h-2.376v-2.376zm8.4 0h2.4v2.376h-2.4v-2.376zm2.808 0h2.4v2.376h-2.4v-2.376zm-11.208 2.808h2.376v2.376h-2.376v-2.376zm11.208 0h2.4v2.376h-2.4v-2.376zm-11.208 2.808h2.376v2.376h-2.376v-2.376zm11.208 0h2.4v2.376h-2.4v-2.376zm4.853-16.824h2.376v2.376h-2.376v-2.376zm2.808 0h2.376v2.376h-2.376v-2.376zm2.808 0h2.376v2.376h-2.376v-2.376zm2.784 0h2.4v2.376h-2.4v-2.376zm2.808 0h2.376v2.376h-2.376v-2.376zm-5.592 2.808h2.376v2.376h-2.376v-2.376zm0 2.808h2.376v2.376h-2.376v-2.376zm0 2.784h2.376v2.4h-2.376v-2.4zm0 2.808h2.376v2.376h-2.376v-2.376zm0 2.808h2.376v2.376h-2.376v-2.376zm0 2.808h2.376v2.376h-2.376v-2.376zm10.421-16.824h2.376v2.376h-2.376v-2.376zm2.808 0h2.376v2.376h-2.376v-2.376zm2.808 0h2.376v2.376h-2.376v-2.376zm2.784 0h2.4v2.376h-2.4v-2.376zm2.808 0h2.376v2.376h-2.376v-2.376zm-11.208 2.808h2.376v2.376h-2.376v-2.376zm0 2.808h2.376v2.376h-2.376v-2.376zm0 2.784h2.376v2.4h-2.376v-2.4zm2.808 0h2.376v2.4h-2.376v-2.4zm2.808 0h2.376v2.4h-2.376v-2.4zm2.784 0h2.4v2.4h-2.4v-2.4zm-8.4 2.808h2.376v2.376h-2.376v-2.376zm0 2.808h2.376v2.376h-2.376v-2.376zm0 2.808h2.376v2.376h-2.376v-2.376zm2.808 0h2.376v2.376h-2.376v-2.376zm2.808 0h2.376v2.376h-2.376v-2.376zm2.784 0h2.4v2.376h-2.4v-2.376zm2.808 0h2.376v2.376h-2.376v-2.376zm7.637-16.824h2.376v2.376h-2.376v-2.376zm2.808 0h2.376v2.376h-2.376v-2.376zm2.784 0h2.4v2.376h-2.4v-2.376zm-8.4 2.808h2.376v2.376h-2.376v-2.376zm11.208 0h2.376v2.376h-2.376v-2.376zm-11.208 2.808h2.376v2.376h-2.376v-2.376zm0 2.784h2.376v2.4h-2.376v-2.4zm0 2.808h2.376v2.376h-2.376v-2.376zm0 2.808h2.376v2.376h-2.376v-2.376zm11.208 0h2.376v2.376h-2.376v-2.376zm-8.4 2.808h2.376v2.376h-2.376v-2.376zm2.808 0h2.376v2.376h-2.376v-2.376zm2.784 0h2.4v2.376h-2.4v-2.376zm7.637-16.824h2.376v2.376h-2.376v-2.376zm11.208 0h2.376v2.376h-2.376v-2.376zm-11.208 2.808h2.376v2.376h-2.376v-2.376zm11.208 0h2.376v2.376h-2.376v-2.376zm-11.208 2.808h2.376v2.376h-2.376v-2.376zm11.208 0h2.376v2.376h-2.376v-2.376zm-11.208 2.784h2.376v2.4h-2.376v-2.4zm2.808 0h2.376v2.4h-2.376v-2.4zm2.808 0h2.376v2.4h-2.376v-2.4zm2.784 0h2.4v2.4h-2.4v-2.4zm2.808 0h2.376v2.4h-2.376v-2.4zm-11.208 2.808h2.376v2.376h-2.376v-2.376zm11.208 0h2.376v2.376h-2.376v-2.376zm-11.208 2.808h2.376v2.376h-2.376v-2.376zm11.208 0h2.376v2.376h-2.376v-2.376zm-11.208 2.808h2.376v2.376h-2.376v-2.376zm11.208 0h2.376v2.376h-2.376v-2.376zm16.883-16.824h2.376v2.376h-2.376v-2.376zm11.208 0h2.4v2.376h-2.4v-2.376zm-11.208 2.808h2.376v2.376h-2.376v-2.376zm2.808 0h2.376v2.376h-2.376v-2.376zm5.592 0h2.4v2.376h-2.4v-2.376zm2.808 0h2.4v2.376h-2.4v-2.376zm-11.208 2.808h2.376v2.376h-2.376v-2.376zm5.616 0h2.376v2.376h-2.376v-2.376zm5.592 0h2.4v2.376h-2.4v-2.376zm-11.208 2.784h2.376v2.4h-2.376v-2.4zm5.616 0h2.376v2.4h-2.376v-2.4zm5.592 0h2.4v2.4h-2.4v-2.4zm-11.208 2.808h2.376v2.376h-2.376v-2.376zm11.208 0h2.4v2.376h-2.4v-2.376zm-11.208 2.808h2.376v2.376h-2.376v-2.376zm11.208 0h2.4v2.376h-2.4v-2.376zm-11.208 2.808h2.376v2.376h-2.376v-2.376zm11.208 0h2.4v2.376h-2.4v-2.376zm4.853-16.824h2.376v2.376h-2.376v-2.376zm2.808 0h2.376v2.376h-2.376v-2.376zm2.808 0h2.376v2.376h-2.376v-2.376zm2.784 0h2.4v2.376h-2.4v-2.376zm2.808 0h2.376v2.376h-2.376v-2.376zm-11.208 2.808h2.376v2.376h-2.376v-2.376zm0 2.808h2.376v2.376h-2.376v-2.376zm0 2.784h2.376v2.4h-2.376v-2.4zm2.808 0h2.376v2.4h-2.376v-2.4zm2.808 0h2.376v2.4h-2.376v-2.4zm2.784 0h2.4v2.4h-2.4v-2.4zm-8.4 2.808h2.376v2.376h-2.376v-2.376zm0 2.808h2.376v2.376h-2.376v-2.376zm0 2.808h2.376v2.376h-2.376v-2.376zm2.808 0h2.376v2.376h-2.376v-2.376zm2.808 0h2.376v2.376h-2.376v-2.376zm2.784 0h2.4v2.376h-2.4v-2.376zm2.808 0h2.376v2.376h-2.376v-2.376zm4.829-16.824h2.376v2.376h-2.376v-2.376zm2.808 0h2.376v2.376h-2.376v-2.376zm2.808 0h2.376v2.376h-2.376v-2.376zm2.784 0h2.4v2.376h-2.4v-2.376zm2.808 0h2.376v2.376h-2.376v-2.376zm-11.208 2.808h2.376v2.376h-2.376v-2.376zm0 2.808h2.376v2.376h-2.376v-2.376zm0 2.784h2.376v2.4h-2.376v-2.4zm2.808 0h2.376v2.4h-2.376v-2.4zm2.808 0h2.376v2.4h-2.376v-2.4zm2.784 0h2.4v2.4h-2.4v-2.4zm-8.4 2.808h2.376v2.376h-2.376v-2.376zm0 2.808h2.376v2.376h-2.376v-2.376zm0 2.808h2.376v2.376h-2.376v-2.376zm2.808 0h2.376v2.376h-2.376v-2.376zm2.808 0h2.376v2.376h-2.376v-2.376zm2.784 0h2.4v2.376h-2.4v-2.376zm2.808 0h2.376v2.376h-2.376v-2.376zm4.829-16.824h2.376v2.376h-2.376v-2.376zm2.808 0h2.376v2.376h-2.376v-2.376zm2.808 0h2.376v2.376h-2.376v-2.376zm2.784 0h2.4v2.376h-2.4v-2.376zm2.808 0h2.376v2.376h-2.376v-2.376zm-5.592 2.808h2.376v2.376h-2.376v-2.376zm0 2.808h2.376v2.376h-2.376v-2.376zm0 2.784h2.376v2.4h-2.376v-2.4zm0 2.808h2.376v2.376h-2.376v-2.376zm0 2.808h2.376v2.376h-2.376v-2.376zm0 2.808h2.376v2.376h-2.376v-2.376zm10.421-16.824h2.376v2.376h-2.376v-2.376zm11.208 0h2.376v2.376h-2.376v-2.376zm-11.208 2.808h2.376v2.376h-2.376v-2.376zm11.208 0h2.376v2.376h-2.376v-2.376zm-11.208 2.808h2.376v2.376h-2.376v-2.376zm11.208 0h2.376v2.376h-2.376v-2.376zm-11.208 2.784h2.376v2.4h-2.376v-2.4zm11.208 0h2.376v2.4h-2.376v-2.4zm-11.208 2.808h2.376v2.376h-2.376v-2.376zm11.208 0h2.376v2.376h-2.376v-2.376zm-11.208 2.808h2.376v2.376h-2.376v-2.376zm11.208 0h2.376v2.376h-2.376v-2.376zm-8.4 2.808h2.376v2.376h-2.376v-2.376zm2.808 0h2.376v2.376h-2.376v-2.376zm2.784 0h2.4v2.376h-2.4v-2.376zm7.637-16.824h2.376v2.376h-2.376v-2.376zm2.808 0h2.376v2.376h-2.376v-2.376zm2.808 0h2.376v2.376h-2.376v-2.376zm2.784 0h2.4v2.376h-2.4v-2.376zm-8.4 2.808h2.376v2.376h-2.376v-2.376zm11.208 0h2.4v2.376h-2.4v-2.376zm-11.208 2.808h2.376v2.376h-2.376v-2.376zm11.208 0h2.4v2.376h-2.4v-2.376zm-11.208 2.784h2.376v2.4h-2.376v-2.4zm2.808 0h2.376v2.4h-2.376v-2.4zm2.808 0h2.376v2.4h-2.376v-2.4zm2.784 0h2.4v2.4h-2.4v-2.4zm-8.4 2.808h2.376v2.376h-2.376v-2.376zm0 2.808h2.376v2.376h-2.376v-2.376zm0 2.808h2.376v2.376h-2.376v-2.376zm35.587 2.376v-6.07h-6.07v-1.734h6.07v-6.07h1.734v6.07h6.07v1.734h-6.07v6.07h-1.734zm14.468-19.2h2.376v2.376h-2.376v-2.376zm-2.808 2.808h2.376v2.376h-2.376v-2.376zm2.808 0h2.376v2.376h-2.376v-2.376zm0 2.808h2.376v2.376h-2.376v-2.376zm0 2.784h2.376v2.4h-2.376v-2.4zm0 2.808h2.376v2.376h-2.376v-2.376zm0 2.808h2.376v2.376h-2.376v-2.376zm-2.808 2.808h2.376v2.376h-2.376v-2.376zm2.808 0h2.376v2.376h-2.376v-2.376zm2.808 0h2.376v2.376h-2.376v-2.376zm12.821 2.376h-2.376v-2.376h2.376v2.376zm-2.808 0h-2.376v-2.376h2.376v2.376zm5.616-2.808h-2.4v-2.376h2.4v2.376zm2.784-2.808h-2.376v-2.376h2.376v2.376zm0-2.784h-2.376v-2.4h2.376v2.4zm-2.784 0h-2.4v-2.4h2.4v2.4zm-2.808 0h-2.376v-2.4h2.376v2.4zm-2.808 0h-2.376v-2.4h2.376v2.4zm8.4-2.808h-2.376v-2.376h2.376v2.376zm-11.208 0h-2.376v-2.376h2.376v2.376zm11.208-2.808h-2.376v-2.376h2.376v2.376zm-11.208 0h-2.376v-2.376h2.376v2.376zm8.424-2.808h-2.4v-2.376h2.4v2.376zm-2.808 0h-2.376v-2.376h2.376v2.376zm-2.808 0h-2.376v-2.376h2.376v2.376zm11.997 20.586v-.867c.75-.211 1.125-1.098 1.125-2.66v-.234h-1.125v-2.895h2.895v2.508c0 2.57-.965 3.953-2.895 4.148zm6.503-22.962h2.376v2.376h-2.376v-2.376zm2.808 0h2.376v2.376h-2.376v-2.376zm2.808 0h2.376v2.376h-2.376v-2.376zm2.784 0h2.4v2.376h-2.4v-2.376zm2.808 0h2.376v2.376h-2.376v-2.376zm-2.808 2.808h2.4v2.376h-2.4v-2.376zm-2.784 2.808h2.376v2.376h-2.376v-2.376zm2.784 2.784h2.4v2.4h-2.4v-2.4zm2.808 2.808h2.376v2.376h-2.376v-2.376zm-11.208 2.808h2.376v2.376h-2.376v-2.376zm11.208 0h2.376v2.376h-2.376v-2.376zm-8.4 2.808h2.376v2.376h-2.376v-2.376zm2.808 0h2.376v2.376h-2.376v-2.376zm2.784 0h2.4v2.376h-2.4v-2.376zm16.037-16.824h2.376v2.376h-2.376v-2.376zm-2.784 2.808h2.376v2.376h-2.376v-2.376zm2.784 0h2.376v2.376h-2.376v-2.376zm-5.592 2.808h2.376v2.376h-2.376v-2.376zm5.592 0h2.376v2.376h-2.376v-2.376zm-8.4 2.784h2.376v2.4h-2.376v-2.4zm8.4 0h2.376v2.4h-2.376v-2.4zm-8.4 2.808h2.376v2.376h-2.376v-2.376zm2.808 0h2.376v2.376h-2.376v-2.376zm2.808 0h2.376v2.376h-2.376v-2.376zm2.784 0h2.376v2.376h-2.376v-2.376zm2.808 0h2.376v2.376h-2.376v-2.376zm-2.808 2.808h2.376v2.376h-2.376v-2.376zm0 2.808h2.376v2.376h-2.376v-2.376z"/><path d="M3.008 36.8h2.376v2.376h-2.376v-2.376zm2.808 0h2.376v2.376h-2.376v-2.376zm2.784 0h2.4v2.376h-2.4v-2.376zm-8.4 2.808h2.376v2.376h-2.376v-2.376zm11.208 0h2.376v2.376h-2.376v-2.376zm-11.208 2.808h2.376v2.376h-2.376v-2.376zm0 2.784h2.376v2.4h-2.376v-2.4zm0 2.808h2.376v2.376h-2.376v-2.376zm0 2.808h2.376v2.376h-2.376v-2.376zm11.208 0h2.376v2.376h-2.376v-2.376zm-8.4 2.808h2.376v2.376h-2.376v-2.376zm2.808 0h2.376v2.376h-2.376v-2.376zm2.784 0h2.4v2.376h-2.4v-2.376zm10.445-16.824h2.376v2.376h-2.376v-2.376zm2.808 0h2.376v2.376h-2.376v-2.376zm2.784 0h2.4v2.376h-2.4v-2.376zm-8.4 2.808h2.376v2.376h-2.376v-2.376zm11.208 0h2.376v2.376h-2.376v-2.376zm-11.208 2.808h2.376v2.376h-2.376v-2.376zm11.208 0h2.376v2.376h-2.376v-2.376zm-11.208 2.784h2.376v2.4h-2.376v-2.4zm11.208 0h2.376v2.4h-2.376v-2.4zm-11.208 2.808h2.376v2.376h-2.376v-2.376zm11.208 0h2.376v2.376h-2.376v-2.376zm-11.208 2.808h2.376v2.376h-2.376v-2.376zm11.208 0h2.376v2.376h-2.376v-2.376zm-8.4 2.808h2.376v2.376h-2.376v-2.376zm2.808 0h2.376v2.376h-2.376v-2.376zm2.784 0h2.4v2.376h-2.4v-2.376zm7.637-16.824h2.376v2.376h-2.376v-2.376zm0 2.808h2.376v2.376h-2.376v-2.376zm0 2.808h2.376v2.376h-2.376v-2.376zm0 2.784h2.376v2.4h-2.376v-2.4zm0 2.808h2.376v2.376h-2.376v-2.376zm0 2.808h2.376v2.376h-2.376v-2.376zm0 2.808h2.376v2.376h-2.376v-2.376zm2.808 0h2.376v2.376h-2.376v-2.376zm2.808 0h2.376v2.376h-2.376v-2.376zm2.784 0h2.4v2.376h-2.4v-2.376zm2.808 0h2.376v2.376h-2.376v-2.376zm7.637-16.824h2.376v2.376h-2.376v-2.376zm2.808 0h2.376v2.376h-2.376v-2.376zm2.784 0h2.4v2.376h-2.4v-2.376zm-8.4 2.808h2.376v2.376h-2.376v-2.376zm11.208 0h2.376v2.376h-2.376v-2.376zm-11.208 2.808h2.376v2.376h-2.376v-2.376zm11.208 0h2.376v2.376h-2.376v-2.376zm-11.208 2.784h2.376v2.4h-2.376v-2.4zm11.208 0h2.376v2.4h-2.376v-2.4zm-11.208 2.808h2.376v2.376h-2.376v-2.376zm11.208 0h2.376v2.376h-2.376v-2.376zm-11.208 2.808h2.376v2.376h-2.376v-2.376zm11.208 0h2.376v2.376h-2.376v-2.376zm-8.4 2.808h2.376v2.376h-2.376v-2.376zm2.808 0h2.376v2.376h-2.376v-2.376zm2.784 0h2.4v2.376h-2.4v-2.376zm10.445-16.824h2.376v2.376h-2.376v-2.376zm2.808 0h2.376v2.376h-2.376v-2.376zm2.784 0h2.4v2.376h-2.4v-2.376zm-8.4 2.808h2.376v2.376h-2.376v-2.376zm11.208 0h2.376v2.376h-2.376v-2.376zm-11.208 2.808h2.376v2.376h-2.376v-2.376zm0 2.784h2.376v2.4h-2.376v-2.4zm5.616 0h2.376v2.4h-2.376v-2.4zm2.784 0h2.4v2.4h-2.4v-2.4zm2.808 0h2.376v2.4h-2.376v-2.4zm-11.208 2.808h2.376v2.376h-2.376v-2.376zm11.208 0h2.376v2.376h-2.376v-2.376zm-11.208 2.808h2.376v2.376h-2.376v-2.376zm11.208 0h2.376v2.376h-2.376v-2.376zm-8.4 2.808h2.376v2.376h-2.376v-2.376zm2.808 0h2.376v2.376h-2.376v-2.376zm2.784 0h2.4v2.376h-2.4v-2.376zm2.808 0h2.376v2.376h-2.376v-2.376zm4.829-16.824h2.376v2.376h-2.376v-2.376zm11.208 0h2.4v2.376h-2.4v-2.376zm-11.208 2.808h2.376v2.376h-2.376v-2.376zm11.208 0h2.4v2.376h-2.4v-2.376zm-11.208 2.808h2.376v2.376h-2.376v-2.376zm2.808 0h2.376v2.376h-2.376v-2.376zm8.4 0h2.4v2.376h-2.4v-2.376zm-11.208 2.784h2.376v2.4h-2.376v-2.4zm5.616 0h2.376v2.4h-2.376v-2.4zm5.592 0h2.4v2.4h-2.4v-2.4zm-11.208 2.808h2.376v2.376h-2.376v-2.376zm8.4 0h2.4v2.376h-2.4v-2.376zm2.808 0h2.4v2.376h-2.4v-2.376zm-11.208 2.808h2.376v2.376h-2.376v-2.376zm11.208 0h2.4v2.376h-2.4v-2.376zm-11.208 2.808h2.376v2.376h-2.376v-2.376zm11.208 0h2.4v2.376h-2.4v-2.376zm4.853-16.824h2.376v2.376h-2.376v-2.376zm2.808 0h2.376v2.376h-2.376v-2.376zm2.808 0h2.376v2.376h-2.376v-2.376zm2.784 0h2.4v2.376h-2.4v-2.376zm2.808 0h2.376v2.376h-2.376v-2.376zm-11.208 2.808h2.376v2.376h-2.376v-2.376zm0 2.808h2.376v2.376h-2.376v-2.376zm0 2.784h2.376v2.4h-2.376v-2.4zm2.808 0h2.376v2.4h-2.376v-2.4zm2.808 0h2.376v2.4h-2.376v-2.4zm2.784 0h2.4v2.4h-2.4v-2.4zm-8.4 2.808h2.376v2.376h-2.376v-2.376zm0 2.808h2.376v2.376h-2.376v-2.376zm0 2.808h2.376v2.376h-2.376v-2.376zm2.808 0h2.376v2.376h-2.376v-2.376zm2.808 0h2.376v2.376h-2.376v-2.376zm2.784 0h2.4v2.376h-2.4v-2.376zm2.808 0h2.376v2.376h-2.376v-2.376zm24.355 2.376v-6.07h-6.07v-1.734h6.07v-6.07h1.734v6.07h6.07v1.734h-6.07v6.07h-1.734zm20.06-19.2h2.376v2.376h-2.376v-2.376zm-2.784 2.808h2.376v2.376h-2.376v-2.376zm2.784 0h2.376v2.376h-2.376v-2.376zm-5.592 2.808h2.376v2.376h-2.376v-2.376zm5.592 0h2.376v2.376h-2.376v-2.376zm-8.4 2.784h2.376v2.4h-2.376v-2.4zm8.4 0h2.376v2.4h-2.376v-2.4zm-8.4 2.808h2.376v2.376h-2.376v-2.376zm2.808 0h2.376v2.376h-2.376v-2.376zm2.808 0h2.376v2.376h-2.376v-2.376zm2.784 0h2.376v2.376h-2.376v-2.376zm2.808 0h2.376v2.376h-2.376v-2.376zm-2.808 2.808h2.376v2.376h-2.376v-2.376zm0 2.808h2.376v2.376h-2.376v-2.376zm10.445-16.824h2.376v2.376h-2.376v-2.376zm-2.808 2.808h2.376v2.376h-2.376v-2.376zm2.808 0h2.376v2.376h-2.376v-2.376zm0 2.808h2.376v2.376h-2.376v-2.376zm0 2.784h2.376v2.4h-2.376v-2.4zm0 2.808h2.376v2.376h-2.376v-2.376zm0 2.808h2.376v2.376h-2.376v-2.376zm-2.808 2.808h2.376v2.376h-2.376v-2.376zm2.808 0h2.376v2.376h-2.376v-2.376zm2.808 0h2.376v2.376h-2.376v-2.376zm5.973 6.138v-.867c.75-.211 1.125-1.098 1.125-2.66v-.234h-1.125v-2.895h2.895v2.508c0 2.57-.965 3.953-2.895 4.148zm9.311-22.962h2.376v2.376h-2.376v-2.376zm2.808 0h2.376v2.376h-2.376v-2.376zm2.784 0h2.4v2.376h-2.4v-2.376zm-8.4 2.808h2.376v2.376h-2.376v-2.376zm11.208 0h2.376v2.376h-2.376v-2.376zm0 2.808h2.376v2.376h-2.376v-2.376zm-2.808 2.784h2.4v2.4h-2.4v-2.4zm-2.784 2.808h2.376v2.376h-2.376v-2.376zm-2.808 2.808h2.376v2.376h-2.376v-2.376zm-2.808 2.808h2.376v2.376h-2.376v-2.376zm2.808 0h2.376v2.376h-2.376v-2.376zm2.808 0h2.376v2.376h-2.376v-2.376zm2.784 0h2.4v2.376h-2.4v-2.376zm2.808 0h2.376v2.376h-2.376v-2.376zm4.829-16.824h2.376v2.376h-2.376v-2.376zm2.808 0h2.376v2.376h-2.376v-2.376zm2.808 0h2.376v2.376h-2.376v-2.376zm2.784 0h2.4v2.376h-2.4v-2.376zm2.808 0h2.376v2.376h-2.376v-2.376zm-2.808 2.808h2.4v2.376h-2.4v-2.376zm-2.784 2.808h2.376v2.376h-2.376v-2.376zm2.784 2.784h2.4v2.4h-2.4v-2.4zm2.808 2.808h2.376v2.376h-2.376v-2.376zm-11.208 2.808h2.376v2.376h-2.376v-2.376zm11.208 0h2.376v2.376h-2.376v-2.376zm-8.4 2.808h2.376v2.376h-2.376v-2.376zm2.808 0h2.376v2.376h-2.376v-2.376zm2.784 0h2.4v2.376h-2.4v-2.376z" opacity=".687"/></g></svg>